<?xml version="1.0" encoding="UTF-8"?>
<svg width="44px" height="44px" viewBox="0 0 44 44" version="1.1" xmlns="http://www.w3.org/2000/svg" xmlns:xlink="http://www.w3.org/1999/xlink">
    <!-- Generator: Sketch 43.2 (39069) - http://www.bohemiancoding.com/sketch -->
    <title>Release Icon</title>
    <desc>Created with Sketch.</desc>
    <defs></defs>
    <g id="TB---Today" stroke="none" stroke-width="1" fill="none" fill-rule="evenodd">
        <g id="TrainingBook---Overview" transform="translate(-55.000000, -985.000000)">
            <g id="Group-25" transform="translate(25.000000, 973.000000)">
                <g id="Release-Icon" transform="translate(31.000000, 13.000000)">
                    <g>
                        <path d="M13.1443473,30.0981258 L17.1697349,30.0831474 L16.4773084,27.2608338 L14.1717071,17.863258 C14.1717071,17.863258 16.6228113,27.4652704 16.4685699,27.2046546 C16.3727767,27.0427965 18.4708602,26.6113153 18.614021,26.6097252 C20.351501,26.5904265 19.6358468,24.5949418 18.614021,21.3986529 C17.5921951,18.202364 16.5713295,10.1099636 9.17827456,10.526066 C1.78521964,10.9421684 1.72305077,17.3320634 0.332052287,22.4768705 C-1.0589462,27.6216776 2.37018311,27.4652704 2.37018311,27.4652704 L5.06528767,17.4949094 L2.51269356,27.5175266 L1.81258354,30.140291 L5.96036278,30.1248572 L7.06257288,30.1207559 L6.048708,30.1314378 L5.88668488,39.0343123 C5.88668488,39.0343123 5.71506039,41.2894747 7.77863484,41.2894747 C9.8422093,41.2894747 9.71955179,38.5221656 9.71955179,38.5221656 L9.71955179,30.1108694 L9.7195186,30.1108695 C9.71876201,30.5319883 9.70588134,38.1610731 9.7650302,38.5266081 C10.2121021,41.2894747 11.145794,40.872679 11.7202373,40.8733722 C12.9458522,40.8709577 13.1443473,39.2505469 13.1443473,39.2505469 L13.1443473,30.0981258 Z M9.50425384,8.88502222 C7.30904238,8.88502222 5.52947188,6.89604224 5.52947188,4.44251111 C5.52947188,1.98897997 7.30904238,0 9.50425384,0 C11.6994653,0 13.4790358,1.98897997 13.4790358,4.44251111 C13.4790358,6.89604224 11.6994653,8.88502222 9.50425384,8.88502222 Z" id="Path-4" stroke="#FFFFFF" stroke-width="2"></path>
                        <path d="M29.3689823,31.3092248 C29.3689823,31.3092248 20.1661708,20.0498669 18.2826513,17.0876444 C16.3991318,14.1254219 15.979565,8 21.3211319,8 C26.6626989,8 29.0469484,12.4658048 29.0469484,12.4658048 C29.0469484,12.4658048 30.3617343,8 35.4114105,8 C40.4610867,8 42.3190657,14.2420435 40.2815676,17.0876444 C38.2440695,19.9332453 29.3689823,31.3092248 29.3689823,31.3092248 Z" id="Path" stroke="#FFFFFF" stroke-width="2"></path>
                    </g>
                </g>
            </g>
        </g>
    </g>
</svg>