<?xml version="1.0" encoding="UTF-8"?>
<svg width="44px" height="51px" viewBox="0 0 44 51" version="1.1" xmlns="http://www.w3.org/2000/svg" xmlns:xlink="http://www.w3.org/1999/xlink">
    <!-- Generator: Sketch 43.2 (39069) - http://www.bohemiancoding.com/sketch -->
    <title>Girl Icon</title>
    <desc>Created with Sketch.</desc>
    <defs></defs>
    <g id="TB---Today" stroke="none" stroke-width="1" fill="none" fill-rule="evenodd">
        <g id="TrainingBook---Overview" transform="translate(-55.000000, -353.000000)" stroke="#FFFFFF" fill="#FFFFFF">
            <g id="Group-27" transform="translate(26.000000, 336.000000)">
                <g id="Group-19" transform="translate(2.000000, 18.000000)">
                    <g id="Girl-Icon" transform="translate(28.000000, 0.000000)">
                        <path d="M13.0160293,47.5976885 L12.730325,38.3115873 C12.730325,38.3115873 12.6940789,36.1155019 14.1762589,35.3948447 C15.6584389,34.6741875 16.3400072,34.4073169 16.3400072,34.4073169 L14.3524584,30.3392285 C14.3524584,30.3392285 17.1076269,31.8560276 18.0272821,31.8148066 C18.9469373,31.7735856 19.9137987,30.8438307 19.9137987,30.3548641 C19.9137987,29.8658975 19.0854694,31.5829663 17.4199269,30.9610974 C15.7543844,30.3392285 13.7821717,29.2792086 11.7477722,26.9036696 C9.71337261,24.5281306 9.80185566,18.1804486 9.80185566,18.1804486 L10.3800719,14.0555036 C10.3800719,14.0555036 15.0252847,14.0555036 19.4767137,11.8135217 C19.4767137,11.8135217 18.5782919,14.871657 15.5091904,14.871657 C22.8273431,15.273562 23.7929887,8.64849856 23.7929887,8.64849856 C23.7929887,8.64849856 25.4571098,9.70603352 26.460834,15.2573096 C27.4949629,26.2580869 24.4220539,26.9036696 22.1265402,28.3951541 C27.5400333,27.5885014 29.2909459,28.3693804 31.3794575,32.0868577 C33.467969,35.804335 33.9182641,38.3115873 32.966293,41.4522028 C32.014322,44.5928182 27.7656365,47.4024988 26.8078901,45.9564733 C25.8501437,44.5104479 26.4436273,42.2559568 26.4436273,42.2559568 C26.4436273,42.2559568 24.7254366,44.3284351 25.4571098,45.9630618 C26.1887829,47.5976885 28.234404,48.6534442 29.5058593,48.866301 C30.7773146,49.0791578 33.4168053,49.4026746 36.524449,46.5806664 C39.6320926,43.7586582 45.257628,36.4283081 38.5631128,28.8065883 C31.8685976,21.1848685 32.8575548,22.650442 32.5665202,19.7017175 C32.2754856,16.752993 31.1547965,7.92342171 28.8280502,4.98272633 C28.8280502,4.98272633 26.2788983,-0.852481489 17.6804011,0.106452031 C9.08190387,1.06538555 2.69301049,10.6145452 0.646879978,21.0861753 C-1.39925053,31.5578053 1.53107318,36.3369877 7.70669063,40.423454 C13.8823081,44.5099202 13.0160293,47.5976885 13.0160293,47.5976885 Z" id="Path-7"></path>
                    </g>
                </g>
            </g>
        </g>
    </g>
</svg>