<?xml version="1.0" encoding="UTF-8"?>
<svg width="23px" height="21px" viewBox="0 0 23 21" version="1.1" xmlns="http://www.w3.org/2000/svg" xmlns:xlink="http://www.w3.org/1999/xlink">
    <!-- Generator: Sketch 43.2 (39069) - http://www.bohemiancoding.com/sketch -->
    <title>Yes Icon</title>
    <desc>Created with Sketch.</desc>
    <defs></defs>
    <g id="TB---Today" stroke="none" stroke-width="1" fill="none" fill-rule="evenodd">
        <g id="TrainingBook---Overview" transform="translate(-437.000000, -258.000000)" fill="#7ED321">
            <g id="Group-12" transform="translate(184.000000, 191.000000)">
                <g id="PeriodProgress">
                    <g id="Yes-Icon" transform="translate(253.000000, 67.000000)">
                        <g id="Group-2">
                            <path d="M13.8740903,1.47142496 C12.8245381,1.0798462 11.6882668,0.865766088 10.5019156,0.865766088 C5.1807708,0.865766088 0.867130645,5.17261809 0.867130645,10.4853893 C0.867130645,15.7981605 5.1807708,20.1050125 10.5019156,20.1050125 C15.8230604,20.1050125 20.1367005,15.7981605 20.1367005,10.4853893 C20.1367005,9.37303484 19.947602,8.30477721 19.59975,7.31091363 L17.8417664,7.31091363 C18.2644653,8.28384798 18.4987871,9.3572973 18.4987871,10.4853893 C18.4987871,14.8949894 14.9184658,18.4696765 10.5019156,18.4696765 C6.08536541,18.4696765 2.50504408,14.8949894 2.50504408,10.4853893 C2.50504408,6.0757892 6.08536541,2.50110203 10.5019156,2.50110203 C11.7067802,2.50110203 12.8494098,2.76714282 13.8740903,3.24359812 L13.8740903,1.47142496 Z" id="Combined-Shape" transform="translate(10.501916, 10.485389) rotate(5.000000) translate(-10.501916, -10.485389) "></path>
                            <path d="M21.754667,0.317343972 C17.3072352,2.78274818 13.0229549,7.02703115 10.7548287,9.9478644 L6.4206809,6.54792882 L3.95026183,8.2659334 L11.5052881,16.2393234 C11.5052881,16.2393234 16.6233913,5.5870938 22.095648,1.28005782 C21.4656234,0.0287552758 21.754667,0.317343972 21.754667,0.317343972 Z" id="Path-2"></path>
                        </g>
                    </g>
                </g>
            </g>
        </g>
    </g>
</svg>