<?xml version="1.0" encoding="UTF-8"?>
<svg width="45px" height="50px" viewBox="0 0 45 50" version="1.1" xmlns="http://www.w3.org/2000/svg" xmlns:xlink="http://www.w3.org/1999/xlink">
    <!-- Generator: Sketch 43.2 (39069) - http://www.bohemiancoding.com/sketch -->
    <title>Girl Hypno Icon</title>
    <desc>Created with Sketch.</desc>
    <defs></defs>
    <g id="TB---Today" stroke="none" stroke-width="1" fill="none" fill-rule="evenodd">
        <g id="TrainingBook---Overview" transform="translate(-52.000000, -1175.000000)">
            <g id="Group-25" transform="translate(25.000000, 973.000000)">
                <g id="Girl-Hypno-Icon" transform="translate(27.000000, 202.000000)">
                    <g id="Girl-Head-Icon">
                        <path d="M23.6368902,41.0143224 C23.6368902,41.0143224 27.5030414,41.4241083 30.734993,38.4990638 C33.9669447,35.5740194 34.8642103,31.5752405 35.1045101,28.8761148 C35.1045101,28.8761148 41.8195544,23.4649898 38.6401542,15.2244504 L37.9032487,15.381943 C37.9032487,15.381943 36.3057085,22.8724583 26.4747882,27.6917419 C16.6438678,32.5110255 21.2740171,40.6538716 21.2740171,40.6538716 C21.2740171,40.6538716 16.2740171,49.3502712 16.2740171,49.3502712 C16.2740171,49.3502712 6.80300371,42.2719239 6.80300371,35.5740194 C6.80300371,28.8761148 8.94170264,25.4705641 6.80300371,22.1373946 C4.66430478,18.804225 -1.14437432,16.7015348 0.488384098,11.2198457 C2.12114251,5.73815671 7.62901971,3.89625681 11.2004287,6.26846675 C11.2004287,6.26846675 22.9727296,-5.87774278 35.8642103,3.64492332 C48.7556909,13.1675894 44.6074152,19.8086094 40.2358127,32.009236 C35.8642103,44.2098626 43.1120842,41.5892596 43.1120842,41.5892596 C41.0118045,46.2434899 36.7828321,49.4577087 32.8508801,48.3742838 C23.1663134,46.410634 23.6368902,41.0143224 23.6368902,41.0143224 Z" id="Path-13" fill="#FFFFFF"></path>
                        <path d="M17.3860343,7.53041121 C17.3860343,7.53041121 22.6012147,5.52348083 26.3832596,6.30847818 C30.1653046,7.09347554 33.5203796,12.1551545 31.6917901,17.712356 C29.8632006,23.2695575 22.649929,24.4715031 19.6281597,20.676329 C16.6063904,16.881155 19.4390868,12.3970471 22.2465238,11.7720327 C25.0539608,11.1470183 28.479998,12.2465875 27.5703447,15.4794717 C26.6606913,18.712356 22.4930476,16.3929522 22.2465238,15.9397441" id="Path-14" stroke="#FF85C2" stroke-width="3"></path>
                    </g>
                </g>
            </g>
        </g>
    </g>
</svg>