<?xml version="1.0" encoding="UTF-8"?>
<svg width="43px" height="47px" viewBox="0 0 43 47" version="1.1" xmlns="http://www.w3.org/2000/svg" xmlns:xlink="http://www.w3.org/1999/xlink">
    <!-- Generator: Sketch 43.2 (39069) - http://www.bohemiancoding.com/sketch -->
    <title>Wardrobe Icon</title>
    <desc>Created with Sketch.</desc>
    <defs></defs>
    <g id="TB---Today" stroke="none" stroke-width="1" fill="none" fill-rule="evenodd">
        <g id="TrainingBook---Overview" transform="translate(-56.000000, -440.000000)">
            <g id="Group-27" transform="translate(26.000000, 336.000000)">
                <g id="Wardrobe-Icon" transform="translate(55.109422, 128.546042) rotate(-8.000000) translate(-55.109422, -128.546042) translate(31.609422, 103.046042)">
                    <path d="M1.6783922,42.0758052 C2.82984825,45.5956005 11.1966955,44.9986396 14.5999069,44.9514512 C18.0031183,44.9042629 26.2096362,45.0728333 27.1238849,42.1059375 C28.0381336,39.1390417 20.5280908,25.0533222 20.1882841,24.8910057 C19.8484774,24.7286892 9.0618291,24.4549399 8.76974965,24.6729728 C8.4776702,24.8910057 0.526936137,38.5560098 1.6783922,42.0758052 Z" id="Path-10" stroke="#ffffff" fill="#ffffff"></path>
                    <path d="M9.4808002,22.7001591 C9.4808002,22.7001591 7.7720497,19.3856046 7.62829631,18.9029191 C7.48454292,18.4202335 7.21161154,16.8061649 8.57369632,16.1631527 C9.9357811,15.5201405 12.5161973,16.1657111 12.8259958,16.3791957 C13.1357944,16.5926803 13.8588482,17.6325294 14.5358895,17.551229 C15.2129308,17.4699286 15.5573102,16.4863644 17.0508593,16.0915174 C18.5444084,15.6966704 20.165135,15.8035548 21.110535,17.1487067 C22.055935,18.4938587 19.5924077,22.362734 19.5924077,22.362734 L9.4808002,22.7001591 Z" id="Path-11" fill="#ffffff"></path>
                    <path d="M23.7515391,18.1297125 C23.7515391,18.1297125 23.4043017,18.8668171 23.9918901,19.0717737 C24.5794785,19.2767303 27.465978,19.3043042 27.465978,19.3043042 C27.465978,19.3043042 28.8020557,18.1166362 28.6091461,16.9480142 C28.4162364,15.7793921 28.5746889,15.4612972 27.3568054,14.7170859 C26.1389219,13.9728746 15.4721442,7.05523454 15.4721442,7.05523454 C15.4721442,7.05523454 14.5215999,4.90788081 13.8699941,4.35412848 C13.2183883,3.80037616 12.6165103,3.357488 13.4190143,2.40206625 C14.2215183,1.4466445 15.7302144,3.52207866 15.7302144,3.52207866 C15.7302144,3.52207866 15.1289079,4.05252108 15.6521931,4.43912435 C16.1754783,4.82572761 16.6015942,5.27600671 16.968837,5.00652149 C17.3360797,4.73703628 17.7990628,3.74807101 17.742476,3.38477764 C17.6858892,3.02148428 16.3626721,0.552055915 15.1163331,0.221169002 C13.8699941,-0.109717912 11.6230972,0.444318681 11.4779149,2.39922358 C11.3327325,4.35412848 11.6579638,5.07900961 12.538489,6.06712207 C13.4190143,7.05523454 1.11509612,14.8222647 1.11509612,14.8222647 C1.11509612,14.8222647 -0.473335942,15.6634111 0.320880089,17.4838577 C1.11509612,19.3043042 1.90216735,19.3156749 1.90216735,19.3156749 L4.55288836,19.1053172 C4.55288836,19.1053172 5.49628782,18.4628736 5.54887356,18.2962931 C5.60145929,18.1297125 4.21708273,17.0864522 3.59005503,17.285155 C2.96302734,17.4838577 2.44231427,17.3832271 2.17224081,16.9301053 C1.90216735,16.4769836 14.2566707,8.85180266 14.2566707,8.85180266 L26.7140592,16.6205385 L26.7140592,17.3886282 L24.2873991,17.3889124 L23.7515391,18.1297125 Z" id="Path-12" fill="#ffffff"></path>
                    <g id="Group-20" transform="translate(28.371187, 25.289026) rotate(16.000000) translate(-28.371187, -25.289026) translate(16.371187, 2.789026)" stroke="#ffffff">
                        <path d="M3.54305506,40.6947273 C3.8523107,42.0919562 5.15570823,45.5513394 6.21835538,43.3309546 C7.28100253,41.1105698 9.4781151,25.4990514 10.9744851,25.6582271 C12.6303125,25.834365 10.6142824,44.3412997 10.9811191,44.3337818 C13.622281,44.279654 13.8850553,45.6699668 14.5945848,42.2667605 C15.3041143,38.8635542 13.2330092,24.2525296 15.3181429,21.3232555 C14.8935848,20.8545355 7.37399002,19.9588069 7.37399002,19.9588069 C8.96156169,23.2023819 2.7397045,37.0651586 3.54305506,40.6947273 Z" id="Path-10"></path>
                        <path d="M7.80996792,20.0744314 C10.1034136,18.4025756 7.64719474,12.4212466 8.33198928,12.2248849 C10.3605017,11.6432183 11.1897654,14.6036179 12.7579389,14.1539514 C14.3261124,13.7042849 14.1205545,10.9754686 16.2196554,12.7380777 C16.2196554,12.7380777 12.5780949,17.2775194 14.584943,20.6937703 C11.6625756,20.0836726 10.6987458,20.4787458 7.80996792,20.0744314 Z" id="Path-11"></path>
                        <path d="M16.8714719,15.0162919 C16.8354862,15.8394126 22.4157323,15.703766 22.4157323,15.703766 C22.4157323,15.703766 23.563626,15.2791769 23.3520608,13.7738122 C23.1404956,12.2684476 23.3238382,12.556095 22.326313,11.9465379 C21.3287877,11.3369808 12.5920078,5.67098679 12.5920078,5.67098679 C12.5920078,5.67098679 11.8134507,3.91216539 11.2797434,3.45860647 C10.7460362,3.00504755 10.8990938,1.86132505 11.7696909,1.7389706 C12.6402881,1.61661615 12.803384,2.77710393 12.803384,2.77710393 C12.803384,2.77710393 12.3108752,3.21157053 12.7394796,3.52822357 C13.1680839,3.84487662 13.5171004,4.21368428 13.8178959,3.99295848 C14.1186914,3.77223269 14.4138516,2.52821841 14.3675034,2.23065768 C14.3211551,1.93309695 13.6327195,0.314469951 12.3005756,0.0734457251 C10.9684316,-0.167578501 9.57014603,0.457182571 9.32047604,1.8574131 C9.07080605,3.25764362 9.46794778,4.05233093 10.1891548,4.86165886 C10.9103618,5.67098679 0.832658207,12.0326862 0.832658207,12.0326862 C0.832658207,12.0326862 -0.468370241,12.7216394 0.182143983,14.2127027 C0.832658207,15.703766 1.47732038,15.7130793 1.47732038,15.7130793 L3.64843208,15.5407828 C3.64843208,15.5407828 4.42113718,15.0145799 4.46420829,14.8781397 C4.5072794,14.7416995 3.37338559,13.887202 2.85980941,14.0499523 C2.34623322,14.2127027 1.91973559,14.1302797 1.69852799,13.7591437 C1.47732038,13.3880077 11.5964565,7.14249211 11.5964565,7.14249211 L21.7998623,13.5055885 L21.7998623,14.1347036 L17.8084753,13.9058666 C17.8084753,13.9058666 16.9074576,14.1931711 16.8714719,15.0162919 Z" id="Path-12"></path>
                    </g>
                </g>
            </g>
        </g>
    </g>
</svg>