<?xml version="1.0" encoding="UTF-8"?>
<svg width="21px" height="21px" viewBox="0 0 21 21" version="1.1" xmlns="http://www.w3.org/2000/svg" xmlns:xlink="http://www.w3.org/1999/xlink">
    <!-- Generator: Sketch 43.2 (39069) - http://www.bohemiancoding.com/sketch -->
    <title>No Icon</title>
    <desc>Created with Sketch.</desc>
    <defs></defs>
    <g id="TB---Today" stroke="none" stroke-width="1" fill="none" fill-rule="evenodd">
        <g id="TrainingBook---Overview" transform="translate(-494.000000, -258.000000)" fill="#D0011B">
            <g id="Group-12" transform="translate(184.000000, 191.000000)">
                <g id="PeriodProgress">
                    <g id="No-Icon" transform="translate(310.000000, 67.000000)">
                        <g>
                            <path d="M13.8740903,1.47142496 C12.8245381,1.0798462 11.6882668,0.865766088 10.5019156,0.865766088 C5.1807708,0.865766088 0.867130645,5.17261809 0.867130645,10.4853893 C0.867130645,15.7981605 5.1807708,20.1050125 10.5019156,20.1050125 C15.8230604,20.1050125 20.1367005,15.7981605 20.1367005,10.4853893 C20.1367005,9.37303484 19.947602,8.30477721 19.59975,7.31091363 L17.8417664,7.31091363 C18.2644653,8.28384798 18.4987871,9.3572973 18.4987871,10.4853893 C18.4987871,14.8949894 14.9184658,18.4696765 10.5019156,18.4696765 C6.08536541,18.4696765 2.50504408,14.8949894 2.50504408,10.4853893 C2.50504408,6.0757892 6.08536541,2.50110203 10.5019156,2.50110203 C11.7067802,2.50110203 12.8494098,2.76714282 13.8740903,3.24359812 L13.8740903,1.47142496 Z" id="Combined-Shape" transform="translate(10.501916, 10.485389) rotate(5.000000) translate(-10.501916, -10.485389) "></path>
                            <path d="M19.1607054,2 C14.6446116,4.14630742 9.73001649,9.30644923 9.73001649,9.30644923 L6.08575745,4.81301564 L4,6.69562435 L7.93824519,11.5540985 L6.10868128,14.6010852 L8.49096379,17.0993358 L10.3077511,13.8675334 L12.6022263,16.5518103 L14.4824817,14.6571496 L11.8555335,11.6294061 C11.8555335,11.6294061 14.9302807,7.12274518 20.7400961,4.07382637" id="Path-2"></path>
                        </g>
                    </g>
                </g>
            </g>
        </g>
    </g>
</svg>