<?xml version="1.0" encoding="UTF-8"?>
<svg width="51px" height="55px" viewBox="0 0 51 55" version="1.1" xmlns="http://www.w3.org/2000/svg" xmlns:xlink="http://www.w3.org/1999/xlink">
    <!-- Generator: Sketch 43.2 (39069) - http://www.bohemiancoding.com/sketch -->
    <title>Career Icon</title>
    <desc>Created with Sketch.</desc>
    <defs></defs>
    <g id="TB---Today" stroke="none" stroke-width="1" fill="none" fill-rule="evenodd">
        <g id="TrainingBook---Overview" transform="translate(-57.000000, -565.000000)" fill="#9B9B9B">
            <g id="Group-26" transform="translate(28.000000, 554.000000)">
                <g id="Career-Icon" transform="translate(30.000000, 11.000000)">
                    <g>
                        <path d="M5.02640833,50.4206418 L18.6483503,54.1559347 L32.0461367,50.7907064 C32.0461367,50.7907064 26.8520191,38.9034443 26.8998095,37.251787 C26.9475999,35.6001298 28.6785578,33.8250577 28.6785578,33.8250577 C28.6785578,33.8250577 23.4105851,34.939992 21.1849178,33.4506898 C18.9592505,31.9613876 19.7181475,29.0390282 19.7181475,29.0390282 C19.7181475,29.0390282 20.320995,28.7340247 20.5774091,29.2013515 C24.4021046,36.1720391 34.0489385,27.5429832 27.0980775,23.2411925 L27.7449885,22.0899329 C27.7449885,22.0899329 39.9867547,22.1645122 44.1035476,16.4101025 C48.2203405,10.6556928 48.9263214,8.0421117 48.9263214,8.0421117 C48.9263214,8.0421117 48.3823065,5.66926142 47.755403,5.66926142 C47.1284996,5.66926142 45.9361445,4.97963853 45.1134529,6.45895279 C44.2907612,7.93826705 42.1294687,12.8411507 39.8181196,14.3549225 C37.5067705,15.8686943 29.5971166,18.4770831 27.4224858,18.1386439 C25.2478549,17.8002048 17.4526539,16.7858104 14.278474,17.4594055 C11.1042941,18.1330006 -0.16793438,26.4726492 0.015468219,28.4527779 C0.198870818,30.4329066 5.29393138,39.4150433 5.29393138,39.4150433 C5.29393138,39.4150433 7.16844885,40.4308328 8.33984364,39.0827404 C9.51123842,37.734648 8.45560164,36.3808914 8.45560164,36.3808914 L4.68665769,27.7218299 C4.68665769,27.7218299 10.0792415,23.9790292 10.0703136,23.7227466 C4.00978277,30.9098432 14.7946584,35.6032808 17.2967568,28.7062532 C17.2967568,28.7062532 20.0925658,35.7855145 10.247707,33.9011516 C10.247707,33.9011516 11.2970312,36.3117341 10.5565426,38.359369 C9.81605395,40.4070039 5.02640833,50.4206418 5.02640833,50.4206418 Z" id="Path-15" stroke="#979797"></path>
                        <ellipse id="Oval-5" cx="18.404878" cy="7.81578947" rx="7.88780488" ry="7.81578947"></ellipse>
                    </g>
                </g>
            </g>
        </g>
    </g>
</svg>