<?xml version="1.0" encoding="UTF-8"?>
<svg width="42px" height="42px" viewBox="0 0 42 42" version="1.1" xmlns="http://www.w3.org/2000/svg" xmlns:xlink="http://www.w3.org/1999/xlink">
    <!-- Generator: Sketch 43.2 (39069) - http://www.bohemiancoding.com/sketch -->
    <title>Icons/social/patreon</title>
    <desc>Created with Sketch.</desc>
    <defs>
        <path d="M21,42 C9.40202025,42 0,32.5979797 0,21 C0,9.40202025 9.40202025,0 21,0 C32.5979797,0 42,9.40202025 42,21 C42,32.5979797 32.5979797,42 21,42 Z M9.08744019,14.5225182 C9.08744019,14.5225182 9,26.1330568 9,28.0441138 C9,29.9551707 10.6395549,29.5190787 10.6395549,29.5190787 C10.6395549,29.5190787 29.1120198,29.5190787 30.5474428,29.5190787 C31.9828659,29.5190787 32,28.0331519 32,28.0331519 C32,28.0331519 32,16.0618401 32,14.6174216 C32,13.173003 30.6780263,13.0142253 30.6780263,13.0142253 C30.6780263,13.0142253 11.6573335,13 10.4683085,13 C9.27928355,13 9.08744019,14.5225182 9.08744019,14.5225182 Z M12,18.124188 C12,18.124188 19.3282674,21.5299533 20.1752314,21.5253097 C21.0221954,21.520666 29,18 29,18 L28.8892402,25.7970873 C28.8892402,25.7970873 28.6650097,26.9676758 27.6786277,26.992442 C26.6922458,27.0172082 13.3911989,26.992442 13.3911989,26.992442 C13.3911989,26.992442 12.0614944,27.0431353 12.0614944,25.6303026 C12.0614944,24.2174699 12,18.124188 12,18.124188 Z" id="path-1"></path>
    </defs>
    <g id="Icons" stroke="none" stroke-width="1" fill="none" fill-rule="evenodd">
        <g id="Icons/social/patreon">
            <mask id="mask-2" fill="white">
                <use xlink:href="#path-1"></use>
            </mask>
            <use id="Mask" fill="#000000" xlink:href="#path-1"></use>
            <g id="color/black" mask="url(#mask-2)" fill="#000000">
                <rect id="24" x="0" y="0" width="42" height="42"></rect>
            </g>
        </g>
    </g>
</svg>