<?xml version="1.0" encoding="iso-8859-1"?>
<!-- Generator: Adobe Illustrator 16.0.0, SVG Export Plug-In . SVG Version: 6.00 Build 0)  -->
<!DOCTYPE svg PUBLIC "-//W3C//DTD SVG 1.1//EN" "http://www.w3.org/Graphics/SVG/1.1/DTD/svg11.dtd">
<svg xmlns="http://www.w3.org/2000/svg" xmlns:xlink="http://www.w3.org/1999/xlink" version="1.1" id="Capa_1" x="0px" y="0px" width="512px" height="512px" viewBox="0 0 47.001 47.001" style="enable-background:new 0 0 47.001 47.001;" xml:space="preserve">
<g>
	<path d="M41.637,23.905c-0.509-5.775-4.326-8.964-7.966-9.683v-4.043C33.671,4.567,29.109,0,23.498,0   c-5.611,0-10.172,4.566-10.172,10.179v4.042c-3.636,0.717-7.452,3.902-7.961,9.687L5.36,25.826l0.007,0.131   c0.545,6.525,6.225,13.244,17.37,20.542l0.763,0.502l0.763-0.499c11.146-7.298,16.825-14.02,17.373-20.545l0.004-1.919   L41.637,23.905z M27.224,36.729L27.224,36.729c0,1.438-1.669,2.596-3.728,2.596c-2.058,0-3.729-1.158-3.729-2.594   c0-0.281,2.068-8.494,2.068-8.494c-1.147-0.602-1.938-1.793-1.938-3.183c0-1.989,1.608-3.604,3.606-3.604   c1.993,0,3.601,1.615,3.601,3.604c0,1.39-0.787,2.581-1.937,3.183c0,0,2.039,8.193,2.047,8.438l0.015,0.057h-0.005V36.729z    M28.577,14.307c-2.209,0.496-3.746,1.587-5.08,2.901c-1.332-1.313-2.87-2.405-5.081-2.901V10.18c0-2.809,2.279-5.092,5.081-5.092   s5.08,2.283,5.08,5.092V14.307z" fill="#9e0274"/>
</g>
<g>
</g>
<g>
</g>
<g>
</g>
<g>
</g>
<g>
</g>
<g>
</g>
<g>
</g>
<g>
</g>
<g>
</g>
<g>
</g>
<g>
</g>
<g>
</g>
<g>
</g>
<g>
</g>
<g>
</g>
</svg>
