<?xml version="1.0" encoding="UTF-8"?>
<svg width="42px" height="42px" viewBox="0 0 42 42" version="1.1" xmlns="http://www.w3.org/2000/svg" xmlns:xlink="http://www.w3.org/1999/xlink">
    <!-- Generator: Sketch 43.2 (39069) - http://www.bohemiancoding.com/sketch -->
    <title>Icons/social/patreon</title>
    <desc>Created with Sketch.</desc>
    <defs>
        <path d="M4.91162642,42.0916868 L4.96519482,19.1602482 C4.96519482,19.1602482 5.20583752,5.95813659 21.3177341,5.93515148 C37.4296306,5.91216637 36.6916761,21.4914273 36.6916761,21.4914273 C36.6916761,21.4914273 37.104303,37.2306999 21.7529339,37.4098093 C16.391333,37.391358 16.0925404,36.2134485 16.0925404,36.2134485 L16.0925404,29.2945421 C16.0925404,29.2945421 18.185279,30.8911311 21.15892,30.8911311 C24.132561,30.8911311 31.1392258,30.6487821 30.7290301,21.1004595 C30.3188344,11.5521369 21.3053403,11.5588933 21.3053403,11.5588933 C21.3053403,11.5588933 11.4339173,11.7386698 11.5892242,20.8732464 C11.7445311,30.007823 11.5892242,41.8637637 11.5892242,41.8637637 L22.1038284,41.8637637 C22.1038284,41.8637637 42.0036668,42.648178 42.0036668,21 C42.0036668,-0.648177976 21.1220173,2.45193891e-05 21.1220173,2.45193891e-05 C21.1220173,2.45193891e-05 1.15672786e-15,0.358337547 9.10809336e-18,19.1876276 L0,42 L4.91162642,42.0916868 Z" id="path-1"></path>
    </defs>
    <g id="Icons" stroke="none" stroke-width="1" fill="none" fill-rule="evenodd">
        <g id="Icons/social/patreon">
            <mask id="mask-2" fill="white">
                <use xlink:href="#path-1"></use>
            </mask>
            <use id="icon" fill="#000000" xlink:href="#path-1"></use>
            <g id="color/black" mask="url(#mask-2)" fill="#000000">
                <rect id="24" x="0" y="0" width="42" height="42"></rect>
            </g>
        </g>
    </g>
</svg>