<?xml version="1.0" encoding="UTF-8"?>
<svg width="42px" height="42px" viewBox="0 0 42 42" version="1.1" xmlns="http://www.w3.org/2000/svg" xmlns:xlink="http://www.w3.org/1999/xlink">
    <!-- Generator: Sketch 43.2 (39069) - http://www.bohemiancoding.com/sketch -->
    <title>Icons/social/reddit</title>
    <desc>Created with Sketch.</desc>
    <defs>
        <path d="M21,42 C9.40202025,42 0,32.5979797 0,21 C0,9.40202025 9.40202025,0 21,0 C32.5979797,0 42,9.40202025 42,21 C42,32.5979797 32.5979797,42 21,42 Z M17.75,25.5 C16.7835017,25.5 16,24.7164983 16,23.75 C16,22.7835017 16.7835017,22 17.75,22 C18.7164983,22 19.5,22.7835017 19.5,23.75 C19.5,24.7164983 18.7164983,25.5 17.75,25.5 Z M25.75,25.5 C24.7835017,25.5 24,24.7164983 24,23.75 C24,22.7835017 24.7835017,22 25.75,22 C26.7164983,22 27.5,22.7835017 27.5,23.75 C27.5,24.7164983 26.7164983,25.5 25.75,25.5 Z M17.3519524,28.9869309 C17.3519524,28.9869309 16.8373727,28.3099324 17.1011273,28.0303019 C17.364882,27.7506715 18.6565038,29.4971106 21.6148136,29.5476245 C24.5731234,29.5981384 25.0829751,28.1947228 25.5366787,28.2947412 C25.9903823,28.3947596 25.6406742,29.0239135 25.1857093,29.2756315 C24.7307444,29.5273496 23.2887489,30.5364168 21.5922039,30.5364168 C19.8956588,30.5364168 17.3519524,28.9869309 17.3519524,28.9869309 Z M11.433818,18.2185715 C9.91347948,18.1532023 8.86821683,19.7521706 8.94183712,21.2243881 C9.01545741,22.6966056 10.6035763,23.7190888 10.6035763,23.7190888 C10.5560902,25.7944812 10.464617,27.4716569 12.621319,29.7125009 C14.7780209,31.9533448 17.8442899,32.8484161 21.8097956,32.933058 C25.7753014,33.0176999 28.8630641,30.7696914 30.6143847,28.9508905 C32.3657053,27.1320896 32.1324403,23.5434735 32.1324403,23.5434735 C32.1324403,23.5434735 32.8919813,23.1382731 33.2654419,22.444462 C33.6389025,21.7506508 33.6514468,20.5622686 33.1608059,19.7090961 C32.670165,18.8559236 31.693331,18.4492233 30.7296843,18.3866499 C29.7660375,18.3240766 28.8655633,19.2089092 28.8655633,19.2089092 C28.8655633,19.2089092 27.0802527,18.0405846 25.5956873,17.5252354 C24.1111219,17.0098863 22.1355138,16.911301 22.1355138,16.911301 L23.6189323,10.6346782 L27.7735497,11.74826 C27.8158706,12.6551612 28.4263586,13.0265525 29.045344,13.2874761 C29.6643295,13.5483997 30.6998597,13.2271604 31.19988,12.7336382 C31.6999002,12.240116 31.7753575,11.313806 31.5509859,10.6835065 C31.3266144,10.0532071 31.3435297,9.91543099 30.0768855,9.37378086 C28.8102414,8.83213072 28.0521297,10.4353205 28.0521297,10.4353205 L22.6817262,9 L22.2898942,10.1540186 L20.7791408,16.9361698 C15.5753184,16.5941025 13.6182537,19.5166036 13.6182537,19.5166036 C13.6182537,19.5166036 12.9541566,18.2839406 11.433818,18.2185715 Z" id="path-1"></path>
    </defs>
    <g id="Icons" stroke="none" stroke-width="1" fill="none" fill-rule="evenodd">
        <g id="Icons/social/reddit">
            <mask id="mask-2" fill="white">
                <use xlink:href="#path-1"></use>
            </mask>
            <use id="Mask" fill="#000000" xlink:href="#path-1"></use>
            <g id="color/black" mask="url(#mask-2)" fill="#000000">
                <rect id="24" x="0" y="0" width="42" height="42"></rect>
            </g>
        </g>
    </g>
</svg>